<svg width="25" height="24" viewBox="0 0 25 24" fill="none" xmlns="http://www.w3.org/2000/svg">
<g id="Portfolio">
<g id="surface3">
<path id="Vector" d="M5.13332 6.72C5.13332 6.72 17.3246 6.72 19.5333 6.72C21.0089 6.72 21.9333 8.16 21.9333 9.12V19.3838C21.9333 20.6081 20.9414 21.6 19.7171 21.6H4.94957C3.72519 21.6 2.73332 20.6081 2.73332 19.3838V9.04688C2.73332 7.82438 3.90894 6.72 5.13332 6.72Z" stroke="#A7A7CC" stroke-width="2" stroke-miterlimit="10" stroke-linecap="round" stroke-linejoin="round"/>
<path id="Vector_2" d="M6.57332 5.27999V3.67499C6.57332 2.07749 6.91832 1.61624 8.90207 2.13936C10.3589 2.52374 18.8864 4.88811 18.8864 4.88811C21.5133 5.87624 21.9146 6.71999 21.9146 8.63811L21.9333 9.81749" stroke="#A7A7CC" stroke-width="2" stroke-miterlimit="10" stroke-linejoin="round"/>
<path id="Vector_3" d="M5.85144 15.36C6.51519 15.36 7.05331 14.8237 7.05331 14.16C7.05331 13.4981 6.51519 12.96 5.85144 12.96C5.19144 12.96 4.65331 13.4981 4.65331 14.16C4.65331 14.8237 5.19144 15.36 5.85144 15.36Z" fill="#A7A7CC"/>
</g>
</g>
</svg>
