<svg width="32" height="25" viewBox="0 0 32 25" fill="none" xmlns="http://www.w3.org/2000/svg">
<g id="surface">
<path id="Vector" d="M9.62348 7.2C10.2844 7.2 10.8216 6.66281 10.8216 6.00188C10.8216 5.33813 10.2844 4.80094 9.62348 4.80094H7.22161C6.56067 4.80094 6.02348 4.26375 6.02348 3.6C6.02348 2.93625 6.56067 2.40188 7.22161 2.40188H9.62348C11.6063 2.40188 13.2235 4.01625 13.2235 6.00188C13.2235 7.98469 11.6063 9.60188 9.62348 9.60188H8.42254L8.42254 14.5209C11.1563 15.0806 13.2235 17.5022 13.2235 20.4019C13.2235 21.7575 12.7538 22.995 11.9916 24.0019H19.2535C18.4913 22.995 18.0216 21.7575 18.0216 20.4019C18.0216 17.505 20.0888 15.0806 22.8225 14.5209L22.8225 9.60188H21.6216C19.6388 9.60188 18.0216 7.98469 18.0216 6.00188C18.0216 4.01625 19.6388 2.40188 21.6216 2.40188H24.0235C24.6844 2.40188 25.2216 2.93625 25.2216 3.6C25.2216 4.26375 24.6844 4.80094 24.0235 4.80094H21.6216C20.9607 4.80094 20.4235 5.33813 20.4235 6.00188C20.4235 6.66281 20.9607 7.2 21.6216 7.2H31.2235L31.2235 4.80094C31.2235 2.14875 29.0747 0 26.4225 0H4.82254C2.17036 0 0.0216064 2.14875 0.0216064 4.80094L0.0216064 7.2H9.62348Z" fill="#E4E4F0"/>
<path id="Vector_2" d="M25.2216 9.60187H31.2235L31.2235 14.4H25.2216L25.2216 9.60187ZM7.22161 24.0019C9.20723 24.0019 10.8216 22.3847 10.8216 20.4019C10.8216 18.4162 9.20723 16.8019 7.22161 16.8019H0.0216064L0.0216064 19.2009C0.0216064 21.8531 2.17036 24.0019 4.82254 24.0019H7.22161ZM0.0216064 9.60187H6.02348L6.02348 14.4H0.0216064L0.0216064 9.60187ZM24.0235 16.8019C22.0379 16.8019 20.4235 18.4162 20.4235 20.4019C20.4235 22.3847 22.0379 24.0019 24.0235 24.0019H26.4225C29.0747 24.0019 31.2235 21.8531 31.2235 19.2009L31.2235 16.8019H24.0235Z" fill="#E4E4F0"/>
</g>
</svg>
