<svg width="32" height="33" viewBox="0 0 32 33" fill="none" xmlns="http://www.w3.org/2000/svg">
<g id="surface1422">
<path id="Vector" d="M28.8782 19.9507C26.9727 27.0623 19.6609 31.2838 12.5493 29.3782C5.43768 27.4726 1.21625 20.1609 3.1218 13.0493C5.02736 5.93766 12.3391 1.71623 19.4507 3.62179C26.5623 5.52734 30.7838 12.8391 28.8782 19.9507Z" fill="#E6AC39"/>
<path id="Vector_2" d="M9.76587 21.7323L13.2172 8.85165L18.4984 10.2667C20.0487 10.6822 21.1445 11.2967 21.7858 12.1104C22.427 12.9241 22.5924 13.9105 22.2831 15.0648C22.1142 15.695 21.8029 16.2095 21.3554 16.6046C20.9055 16.9991 20.3625 17.2289 19.73 17.3002C20.3398 17.6421 20.7655 18.1108 21.007 18.7164C21.2521 19.3179 21.2792 19.9799 21.0845 20.7068C20.7532 21.9432 20.1103 22.7777 19.1553 23.2025C18.1972 23.6291 16.9949 23.6538 15.5397 23.2794L9.76587 21.7323ZM14.413 14.6953L17.2215 15.4478C18.5585 15.7802 19.3609 15.4516 19.6404 14.4084C19.797 13.824 19.7405 13.3586 19.471 13.012C19.204 12.6661 18.7076 12.3934 17.9808 12.1986L15.2762 11.4739L14.413 14.6953ZM13.8954 16.6271L12.8601 20.4908L15.9801 21.3268C16.5983 21.4925 18.0918 21.5691 18.4613 20.1903C18.8307 18.8114 18.322 17.8314 17.1143 17.4896L13.8954 16.6271Z" fill="#FFF8E1"/>
<path id="Vector_3" d="M15.6667 7.43744L17.5986 7.95508L16.7354 11.1764L14.8036 10.6588L15.6667 7.43744ZM18.8881 8.3006L20.8199 8.81824L19.9568 12.0396L18.0249 11.522L18.8881 8.3006ZM12.0433 20.9604L13.9751 21.478L13.1119 24.6994L11.1801 24.1818L12.0433 20.9604ZM15.2646 21.8236L17.1965 22.3412L16.3333 25.5626L14.4015 25.0449L15.2646 21.8236Z" fill="#FFF8E1"/>
</g>
</svg>
