<svg width="24" height="19" viewBox="0 0 24 19" fill="none" xmlns="http://www.w3.org/2000/svg">
<g id="surface" clip-path="url(#clip0_528_100)">
<path id="Vector" d="M3.89842 14.2382C4.04325 14.0996 4.2424 14.0188 4.45361 14.0188H23.6077C23.9578 14.0188 24.1328 14.423 23.8853 14.6598L20.1016 18.2806C19.9568 18.4192 19.7576 18.5 19.5464 18.5H0.392259C0.0422463 18.5 -0.13276 18.0958 0.114663 17.859L3.89842 14.2382Z" fill="url(#paint0_linear_528_100)"/>
<path id="Vector_2" d="M3.89831 0.719442C4.04918 0.580847 4.24833 0.5 4.45351 0.5H23.6076C23.9577 0.5 24.1327 0.904235 23.8852 1.141L20.1015 4.76179C19.9566 4.90038 19.7575 4.98123 19.5463 4.98123H0.392152C0.0421395 4.98123 -0.132867 4.577 0.114556 4.34023L3.89831 0.719442Z" fill="url(#paint1_linear_528_100)"/>
<path id="Vector_3" d="M20.1016 7.43551C19.9568 7.29691 19.7576 7.21606 19.5464 7.21606H0.392259C0.0422463 7.21606 -0.13276 7.6203 0.114663 7.85707L3.89842 11.4779C4.04325 11.6164 4.2424 11.6973 4.45361 11.6973H23.6077C23.9578 11.6973 24.1328 11.2931 23.8853 11.0563L20.1016 7.43551Z" fill="url(#paint2_linear_528_100)"/>
</g>
<defs>
<linearGradient id="paint0_linear_528_100" x1="21.778" y1="-1.66296" x2="9.41591" y2="23.0811" gradientUnits="userSpaceOnUse">
<stop stop-color="#00FFA3"/>
<stop offset="1" stop-color="#DC1FFF"/>
</linearGradient>
<linearGradient id="paint1_linear_528_100" x1="15.9815" y1="-4.55879" x2="3.61948" y2="20.1853" gradientUnits="userSpaceOnUse">
<stop stop-color="#00FFA3"/>
<stop offset="1" stop-color="#DC1FFF"/>
</linearGradient>
<linearGradient id="paint2_linear_528_100" x1="18.8614" y1="-3.1201" x2="6.4993" y2="21.6239" gradientUnits="userSpaceOnUse">
<stop stop-color="#00FFA3"/>
<stop offset="1" stop-color="#DC1FFF"/>
</linearGradient>
<clipPath id="clip0_528_100">
<rect width="24" height="18" fill="white" transform="translate(0 0.5)"/>
</clipPath>
</defs>
</svg>
